<?xml version="1.0" encoding="UTF-8"?>
<svg version="1.1" xmlns="http://www.w3.org/2000/svg" width="183" height="56">
<path d="M0 0 C6.42791762 0.48512586 6.42791762 0.48512586 8.875 2.6875 C10.21787191 5.44784782 10.65475314 7.96182759 11 11 C12.9490625 10.7215625 12.9490625 10.7215625 14.9375 10.4375 C17.15234375 10.12109375 17.15234375 10.12109375 19 10 C19.495 10.495 19.495 10.495 20 11 C22.33297433 11.04092937 24.66705225 11.04241723 27 11 C27.82074855 13.97710638 28.63172084 16.95633909 29.4375 19.9375 C29.66759766 20.76830078 29.89769531 21.59910156 30.13476562 22.45507812 C31.61837273 27.98097705 32.49949757 33.29887465 33 39 C31.02 39 29.04 39 27 39 C26.67 37.35 26.34 35.7 26 34 C24.35 34 22.7 34 21 34 C20.34 38.29 19.68 42.58 19 47 C12.73920552 47.43177893 9.90924297 46.92739438 5 43 C4.29875 43.66 3.5975 44.32 2.875 45 C-2.39482727 48.48812376 -8.99677963 47.90356339 -15 47 C-19.44077055 45.03826778 -22.05300519 42.2133371 -25 38.4375 C-26.92264296 31.82841484 -27.30325496 24.80701069 -24.375 18.5 C-16.48229861 10.19189328 -16.48229861 10.19189328 -10.58984375 9.8671875 C-9.71457031 9.86976562 -8.83929687 9.87234375 -7.9375 9.875 C-7.05964844 9.87242188 -6.18179687 9.86984375 -5.27734375 9.8671875 C-3 10 -3 10 -1 11 C-0.67 7.37 -0.34 3.74 0 0 Z M-14 23 C-16.06643547 25.65684561 -15.99749076 27.14302649 -15.9375 30.5625 C-15.30446574 34.06222372 -15.30446574 34.06222372 -12.875 36 C-9.13162766 37.30204255 -6.82035239 36.97245334 -3 36 C-0.61971709 34.57324827 -0.61971709 34.57324827 1 33 C0.71421491 29.28479387 0.4972221 26.69979407 -1.6875 23.625 C-5.73328825 20.78201366 -9.8837878 19.91284085 -14 23 Z M12 23 C10.45089819 24.59436406 10.45089819 24.59436406 10 27 C10.35679708 29.77328641 10.93362409 32.41107626 12 35 C12.66 35.33 13.32 35.66 14 36 C15.75734451 31.02638346 17.32584613 26.2584002 18 21 C15.4362736 21 14.16977424 21.6438911 12 23 Z M23 24 C24 27 24 27 24 27 Z " fill="#FEFEFE" transform="translate(26,4)"/>
<path d="M0 0 C1.98 0 3.96 0 6 0 C6.33 2.64 6.66 5.28 7 8 C7.29132813 7.4225 7.58265625 6.845 7.8828125 6.25 C9.13049539 3.99004609 10.32799638 1.97011279 12 0 C15.3125 -0.5 15.3125 -0.5 18 0 C17.45366444 3.87156308 16.38111611 6.02171228 14.0625 9.125 C12.57169904 11.39481022 12.57169904 11.39481022 12 14 C13.11708305 17.23867488 14.61707405 19.76913486 16.51171875 22.6171875 C18 25 18 25 18 28 C15.69 28 13.38 28 11 28 C9.68 25.36 8.36 22.72 7 20 C6.67 22.64 6.34 25.28 6 28 C4.02 28 2.04 28 0 28 C0 18.76 0 9.52 0 0 Z " fill="#FFFFFF" transform="translate(111,15)"/>
<path d="M0 0 C1.98 0 3.96 0 6 0 C6.33 2.64 6.66 5.28 7 8 C7.5775 7.7525 8.155 7.505 8.75 7.25 C11 7 11 7 13.125 8.40625 C15.90180063 12.24749088 15.43728526 15.63990126 15.25 20.25 C15.23195312 21.09046875 15.21390625 21.9309375 15.1953125 22.796875 C15.14830798 24.86507395 15.07656724 26.93268441 15 29 C13.02 29 11.04 29 9 29 C8.67 24.38 8.34 19.76 8 15 C7.67 15 7.34 15 7 15 C6.67 19.62 6.34 24.24 6 29 C4.02 29 2.04 29 0 29 C0 19.43 0 9.86 0 0 Z " fill="#FFFFFF" transform="translate(130,14)"/>
<path d="M0 0 C1.65 0 3.3 0 5 0 C5.33 2.64 5.66 5.28 6 8 C6.556875 7.731875 7.11375 7.46375 7.6875 7.1875 C10 7 10 7 12.75 8.6875 C15.34561904 11.54027015 15.43693943 14.22853256 15.5625 18 C15.37866574 21.55412893 15.02808125 23.93046547 13.6875 27.25 C11 29 11 29 0 29 C0 19.43 0 9.86 0 0 Z M6 14 C4.79438816 14.98267859 4.79438816 14.98267859 4.90234375 16.84765625 C4.91394531 17.57855469 4.92554687 18.30945313 4.9375 19.0625 C4.958125 20.361875 4.97875 21.66125 5 23 C5.99 23 6.98 23 8 23 C9.41577477 21.81575674 9.41577477 21.81575674 9.0625 18.4375 C9.041875 17.303125 9.02125 16.16875 9 15 C8.01 14.67 7.02 14.34 6 14 Z " fill="#FFFFFF" transform="translate(61,14)"/>
<path d="M0 0 C2.67578125 1.44140625 2.67578125 1.44140625 5 4 C5.61640445 7.10419777 5.47241487 10.10090724 5.3125 13.25 C5.27866211 14.51070312 5.27866211 14.51070312 5.24414062 15.796875 C5.18537714 17.86534964 5.09569885 19.93290488 5 22 C2.87561661 22.08078641 0.7503677 22.13909141 -1.375 22.1875 C-2.55835938 22.22230469 -3.74171875 22.25710937 -4.9609375 22.29296875 C-6.46527344 22.14794922 -6.46527344 22.14794922 -8 22 C-10.12853298 18.80720054 -10.52491138 16.75336004 -10.46875 12.94140625 C-10 11 -10 11 -7 8.5 C-6.01 8.005 -5.02 7.51 -4 7 C-5.65 7.33 -7.3 7.66 -9 8 C-9 5.69 -9 3.38 -9 1 C-5.66660588 -0.11113137 -3.49519344 -0.34951934 0 0 Z M-2 13 C-2.99 13.495 -2.99 13.495 -4 14 C-3.67 14.99 -3.34 15.98 -3 17 C-2.34 16.67 -1.68 16.34 -1 16 C-1.33 15.01 -1.66 14.02 -2 13 Z " fill="#FFFFFF" transform="translate(156,21)"/>
<path d="M0 0 C1.98 0 3.96 0 6 0 C6.33 4.62 6.66 9.24 7 14 C7.99 14 8.98 14 10 14 C10 9.38 10 4.76 10 0 C11.65 0 13.3 0 15 0 C15 6.93 15 13.86 15 21 C5.91796875 21.48828125 5.91796875 21.48828125 3 21 C-0.16272872 17.6264227 -0.32560599 14.39423694 -0.26367188 9.87304688 C-0.23853516 9.15181641 -0.21339844 8.43058594 -0.1875 7.6875 C-0.17396484 6.94693359 -0.16042969 6.20636719 -0.14648438 5.44335938 C-0.11135979 3.62858925 -0.05755972 1.81419712 0 0 Z " fill="#FFFFFF" transform="translate(77,22)"/>
<path d="M0 0 C1.65 0 3.3 0 5 0 C6 1 6 1 6.11352539 3.68383789 C6.10828857 4.85164795 6.10305176 6.01945801 6.09765625 7.22265625 C6.09443359 8.48271484 6.09121094 9.74277344 6.08789062 11.04101562 C6.07953403 12.38151109 6.07106907 13.72200588 6.0625 15.0625 C6.0574866 16.40689942 6.05292342 17.7513006 6.04882812 19.09570312 C6.03699488 22.39717941 6.02050971 25.69856803 6 29 C4.02 29 2.04 29 0 29 C0 19.43 0 9.86 0 0 Z " fill="#FFFFFF" transform="translate(95,14)"/>
<path d="M0 0 C3.63 0 7.26 0 11 0 C11 2.31 11 4.62 11 7 C9.35 7 7.7 7 6 7 C6 11.62 6 16.24 6 21 C4.02 21 2.04 21 0 21 C0 14.07 0 7.14 0 0 Z " fill="#FFFFFF" transform="translate(171,22)"/>
<path d="M0 0 C1.98 0 3.96 0 6 0 C6 6.93 6 13.86 6 21 C4.02 21 2.04 21 0 21 C0 14.07 0 7.14 0 0 Z " fill="#FFFFFF" transform="translate(163,22)"/>
<path d="M0 0 C1.98 0 3.96 0 6 0 C6 2.31 6 4.62 6 7 C4.02 7 2.04 7 0 7 C0 4.69 0 2.38 0 0 Z " fill="#FFFFFF" transform="translate(163,14)"/>
</svg>
